<?xml version="1.0" encoding="utf-8"?>
<!DOCTYPE svg PUBLIC "-//W3C//DTD SVG 1.1//EN" "http://www.w3.org/Graphics/SVG/1.1/DTD/svg11.dtd">
<svg xmlns="http://www.w3.org/2000/svg" xmlns:xlink="http://www.w3.org/1999/xlink" version="1.1" baseProfile="full" width="248.768" height="248.918" viewBox="0 0 248.77 248.92" enable-background="new 0 0 248.77 248.92" xml:space="preserve">
	<ellipse fill="#000000" fill-opacity="1" stroke-linejoin="round" cx="124.384" cy="124.459" rx="122.519" ry="122.594"/>
	<ellipse fill="none" stroke-width="3.73039" stroke-linejoin="miter" stroke="#000000" stroke-opacity="1" cx="124.384" cy="124.459" rx="122.519" ry="122.594"/>
	<ellipse fill="#FFFFFF" fill-opacity="1" stroke-width="50800" stroke-linejoin="miter" cx="124.384" cy="129.57" rx="113.499" ry="113.574"/>
	<ellipse fill="none" stroke-width="1.24346" stroke-linejoin="miter" stroke="#000000" stroke-opacity="1" cx="124.384" cy="129.57" rx="113.499" ry="113.574"/>
	<ellipse fill="#000000" fill-opacity="1" stroke-width="16933.3" stroke-linejoin="miter" cx="79.0595" cy="106.72" rx="15.5591" ry="22.9253"/>
	<ellipse fill="none" stroke-width="1.22732" stroke-linejoin="miter" stroke="#000000" stroke-opacity="1" cx="79.0595" cy="106.72" rx="15.5591" ry="22.9253"/>
	<ellipse fill="#000000" fill-opacity="1" stroke-width="16933.3" stroke-linejoin="miter" cx="169.708" cy="106.72" rx="15.5591" ry="22.9253"/>
	<ellipse fill="none" stroke-width="1.22732" stroke-linejoin="miter" stroke="#000000" stroke-opacity="1" cx="169.708" cy="106.72" rx="15.5591" ry="22.9253"/>
	<ellipse fill="#FFFFFF" fill-opacity="1" stroke-width="16933.3" stroke-linejoin="miter" cx="79.1346" cy="96.9487" rx="5.71253" ry="9.84662"/>
	<ellipse fill="none" stroke-width="1.22732" stroke-linejoin="miter" stroke="#000000" stroke-opacity="1" cx="79.1346" cy="96.9487" rx="5.71253" ry="9.84662"/>
	<ellipse fill="#FFFFFF" fill-opacity="1" stroke-width="16933.3" stroke-linejoin="miter" cx="169.783" cy="96.9487" rx="5.71252" ry="9.84662"/>
	<ellipse fill="none" stroke-width="1.16272" stroke-linejoin="miter" stroke="#000000" stroke-opacity="1" cx="169.783" cy="96.9487" rx="5.71252" ry="9.84662"/>
	<path fill="#FFC000" fill-opacity="1" stroke-width="16933.3" stroke-linejoin="miter" d="M 106.795,180.156L 124.459,164.221L 142.123,180.156L 106.795,180.156 Z "/>
	<path fill="none" stroke-width="1.22732" stroke-linejoin="miter" stroke="#BC8C00" stroke-opacity="1" d="M 106.795,180.156L 124.459,164.221L 142.123,180.156L 106.795,180.156 Z "/>
	<path fill="#FFC000" fill-opacity="1" stroke-width="16933.3" stroke-linejoin="miter" d="M 141.521,181.509L 124.459,189.477L 107.397,181.509L 141.521,181.509 Z "/>
	<path fill="none" stroke-width="1.2317" stroke-linejoin="miter" stroke="#BC8C00" stroke-opacity="1" d="M 141.521,181.509L 124.459,189.477L 107.397,181.509L 141.521,181.509 Z "/>
</svg>
