<?xml version="1.0" encoding="utf-8"?>
<!DOCTYPE svg PUBLIC "-//W3C//DTD SVG 1.1//EN" "http://www.w3.org/Graphics/SVG/1.1/DTD/svg11.dtd">
<svg xmlns="http://www.w3.org/2000/svg" xmlns:xlink="http://www.w3.org/1999/xlink" version="1.1" baseProfile="full" width="189.326" height="71.7413" viewBox="0 0 189.33 71.74" enable-background="new 0 0 189.33 71.74" xml:space="preserve">
	<image x="0" y="0" width="392" height="446" transform="matrix(0.16,0.00,0.00,0.16,0.00,0.00)" xlink:href="logo_letter_files/image0.png"/>
	<g>
		<path fill="#FBE5D6" fill-opacity="1" stroke-linejoin="round" d="M 27.6869,33.7649L 25.8673,35.67L 25.8673,41.6619L 22.9618,41.6619L 22.9618,17.5336L 25.8673,17.5336L 25.8673,32.096L 27.4205,30.2211L 32.7137,24.6113L 36.2474,24.6113L 29.6373,31.7341L 37.0215,41.6619L 33.6084,41.6619L 27.6869,33.7649 Z "/>
	</g>
	<image x="0" y="0" width="397" height="446" transform="matrix(0.16,0.00,0.00,0.16,20.27,0.00)" xlink:href="logo_letter_files/image1.png"/>
	<g>
		<path fill="#DEEBF7" fill-opacity="1" stroke-linejoin="round" d="M 50.267,41.9836C 47.9614,41.9836 46.0864,41.2237 44.6421,39.704C 43.1977,38.1842 42.4756,36.1526 42.4756,33.6091L 42.4756,33.0712C 42.4756,31.3788 42.7973,29.8683 43.4407,28.5396C 44.0841,27.2109 44.9847,26.1703 46.1425,25.418C 47.3004,24.6657 48.5545,24.2896 49.905,24.2896C 52.1134,24.2896 53.8301,25.0419 55.0549,26.5465C 56.2798,28.0512 56.8922,30.206 56.8922,33.0109L 56.8922,34.2625L 45.381,34.2625C 45.4212,35.8007 45.9105,37.0432 46.8488,37.9899C 47.7871,38.9365 48.9785,39.4099 50.4228,39.4099C 51.4482,39.4099 52.317,39.2172 53.0291,38.8318C 53.7413,38.4465 54.3654,37.9354 54.9016,37.2986L 56.676,38.686C 55.2518,40.8844 53.1154,41.9836 50.267,41.9836 Z M 49.905,26.8632C 48.7321,26.8632 47.7477,27.2863 46.9518,28.1324C 46.1559,28.9786 45.6642,30.1641 45.4765,31.6888L 53.9867,31.6888L 53.9867,31.4727C 53.903,30.0082 53.505,28.8739 52.7929,28.0696C 52.0808,27.2653 51.1182,26.8632 49.905,26.8632 Z "/>
	</g>
	<image x="0" y="0" width="392" height="446" transform="matrix(0.16,0.00,0.00,0.16,41.34,0.00)" xlink:href="logo_letter_files/image2.png"/>
	<g>
		<path fill="#E2F0D9" fill-opacity="1" stroke-linejoin="round" d="M 69.0267,33.7649L 67.207,35.67L 67.207,41.6619L 64.3016,41.6619L 64.3016,17.5336L 67.207,17.5336L 67.207,32.096L 68.7603,30.2211L 74.0534,24.6113L 77.5872,24.6113L 70.9771,31.7341L 78.3613,41.6619L 74.9482,41.6619L 69.0267,33.7649 Z "/>
	</g>
	<image x="0" y="0" width="397" height="446" transform="matrix(0.16,0.00,0.00,0.16,61.61,0.00)" xlink:href="logo_letter_files/image3.png"/>
	<g>
		<path fill="#FFE7E7" fill-opacity="1" stroke-linejoin="round" d="M 91.6067,41.9836C 89.3011,41.9836 87.4262,41.2237 85.9818,39.704C 84.5375,38.1842 83.8153,36.1526 83.8153,33.6091L 83.8153,33.0712C 83.8153,31.3788 84.137,29.8683 84.7804,28.5396C 85.4239,27.2109 86.3245,26.1703 87.4823,25.418C 88.6401,24.6657 89.8943,24.2896 91.2448,24.2896C 93.4532,24.2896 95.1698,25.0419 96.3947,26.5465C 97.6195,28.0512 98.2319,30.206 98.2319,33.0109L 98.2319,34.2625L 86.7208,34.2625C 86.761,35.8007 87.2502,37.0432 88.1886,37.9899C 89.1269,38.9365 90.3182,39.4099 91.7626,39.4099C 92.788,39.4099 93.6568,39.2172 94.3689,38.8318C 95.081,38.4465 95.7052,37.9354 96.2414,37.2986L 98.0158,38.686C 96.5916,40.8844 94.4552,41.9836 91.6067,41.9836 Z M 91.2448,26.8632C 90.0719,26.8632 89.0875,27.2863 88.2916,28.1324C 87.4957,28.9786 87.0039,30.1641 86.8163,31.6888L 95.3265,31.6888L 95.3265,31.4727C 95.2427,30.0082 94.8448,28.8739 94.1327,28.0696C 93.4205,27.2653 92.4579,26.8632 91.2448,26.8632 Z "/>
	</g>
	<image x="0" y="0" width="384" height="446" transform="matrix(0.16,0.00,0.00,0.16,82.68,0.00)" xlink:href="logo_letter_files/image4.png"/>
	<g>
		<path fill="#FFFFC5" fill-opacity="1" stroke-linejoin="round" d="M 113.86,26.9688C 113.421,26.8984 112.945,26.8632 112.432,26.8632C 110.526,26.8632 109.232,27.6909 108.552,29.3464L 108.552,41.6619L 105.646,41.6619L 105.646,24.6113L 108.471,24.6113L 108.517,26.5767C 109.472,25.0519 110.824,24.2896 112.573,24.2896C 113.136,24.2896 113.565,24.3566 113.86,24.4906L 113.86,26.9688 Z "/>
	</g>
	<image x="0" y="0" width="380" height="446" transform="matrix(0.16,0.00,0.00,0.16,101.66,0.00)" xlink:href="logo_letter_files/image5.png"/>
	<g>
		<path fill="#FFFFFF" fill-opacity="1" stroke-linejoin="round" d="M 123.828,32.9807C 123.828,31.3085 124.156,29.8047 124.811,28.4692C 125.466,27.1338 126.377,26.1033 127.545,25.3778C 128.713,24.6523 130.046,24.2896 131.544,24.2896C 133.856,24.2896 135.728,25.0938 137.159,26.7023C 138.59,28.3109 139.305,30.4506 139.305,33.1215L 139.305,33.3276C 139.305,34.9864 138.988,36.476 138.353,37.7963C 137.718,39.1167 136.811,40.1447 135.633,40.8802C 134.455,41.6158 133.102,41.9836 131.574,41.9836C 129.272,41.9836 127.405,41.1793 125.974,39.5707C 124.543,37.9622 123.828,35.8325 123.828,33.1818L 123.828,32.9807 Z M 126.754,33.3125C 126.754,35.1523 127.191,36.6284 128.066,37.741C 128.94,38.8536 130.11,39.4099 131.574,39.4099C 133.052,39.4099 134.225,38.8452 135.093,37.7159C 135.961,36.5865 136.395,35.0065 136.395,32.9757C 136.395,31.1594 135.952,29.6865 135.068,28.5572C 134.183,27.4279 133.008,26.8632 131.544,26.8632C 130.11,26.8632 128.953,27.4195 128.073,28.5321C 127.193,29.6447 126.754,31.2381 126.754,33.3125 Z "/>
	</g>
	<image x="0" y="0" width="380" height="446" transform="matrix(0.16,0.00,0.00,0.16,128.20,0.00)" xlink:href="logo_letter_files/image6.png"/>
	<g>
		<path fill="#FFFFFF" fill-opacity="1" stroke-linejoin="round" d="M 150.369,32.9807C 150.369,31.3085 150.697,29.8047 151.352,28.4692C 152.007,27.1338 152.918,26.1033 154.086,25.3778C 155.254,24.6523 156.587,24.2896 158.085,24.2896C 160.397,24.2896 162.269,25.0938 163.7,26.7023C 165.131,28.3109 165.846,30.4506 165.846,33.1215L 165.846,33.3276C 165.846,34.9864 165.529,36.476 164.894,37.7963C 164.259,39.1167 163.352,40.1447 162.174,40.8802C 160.996,41.6158 159.643,41.9836 158.115,41.9836C 155.813,41.9836 153.946,41.1793 152.515,39.5707C 151.084,37.9622 150.369,35.8325 150.369,33.1818L 150.369,32.9807 Z M 153.295,33.3125C 153.295,35.1523 153.732,36.6284 154.607,37.741C 155.481,38.8536 156.651,39.4099 158.115,39.4099C 159.593,39.4099 160.766,38.8452 161.634,37.7159C 162.502,36.5865 162.936,35.0065 162.936,32.9757C 162.936,31.1594 162.493,29.6865 161.609,28.5572C 160.724,27.4279 159.549,26.8632 158.085,26.8632C 156.651,26.8632 155.494,27.4195 154.614,28.5321C 153.734,29.6447 153.295,31.2381 153.295,33.3125 Z "/>
	</g>
</svg>
