<?xml version="1.0" encoding="utf-8"?>
<!DOCTYPE svg PUBLIC "-//W3C//DTD SVG 1.1//EN" "http://www.w3.org/Graphics/SVG/1.1/DTD/svg11.dtd">
<svg xmlns="http://www.w3.org/2000/svg" xmlns:xlink="http://www.w3.org/1999/xlink" version="1.1" baseProfile="full" width="694.822" height="695.13" viewBox="0 0 694.82 695.13" enable-background="new 0 0 694.82 695.13" xml:space="preserve">
	<ellipse fill="#000000" fill-opacity="1" stroke-linejoin="round" cx="519.784" cy="175.24" rx="172.325" ry="172.43"/>
	<ellipse fill="none" stroke-width="5.42603" stroke-linejoin="miter" stroke="#FFFFFF" stroke-opacity="1" cx="519.784" cy="175.24" rx="172.325" ry="172.43"/>
	<g>
		<path fill="#FFFFFF" fill-opacity="1" stroke-linejoin="round" d="M 587.878,70.8556L 597.44,75.9437C 598.551,76.4993 599.392,77.34 599.962,78.4658C 600.532,79.5916 600.817,82.3916 600.817,86.8657C 600.817,99.4106 600.722,112.657 600.532,126.606C 600.342,140.555 600.057,153.699 599.677,166.039L 598.273,172.487L 599.414,186.524L 596.87,199.463C 596.694,199.639 596.606,200.004 596.606,200.56L 596.606,201.7C 596.606,202.08 596.65,202.453 596.738,202.819C 596.826,203.184 596.87,203.469 596.87,203.674L 596.87,205.911C 596.87,206.291 596.913,206.664 597.001,207.03C 597.089,207.395 597.133,207.68 597.133,207.885C 597.133,211.043 595.832,214.494 593.229,218.237L 567.964,219.377C 566.267,219.377 565.419,218.303 565.419,216.153C 565.419,214.004 565.99,211.804 567.13,209.552L 566.56,199.726L 569.06,192.445L 566.253,171.391L 566.253,158.758C 566.253,157.618 565.646,156.397 564.432,155.095C 563.219,153.794 561.486,153.421 559.235,153.977C 558.124,154.357 557.005,154.591 555.879,154.679C 554.753,154.766 553.635,154.81 552.524,154.81C 551.383,154.81 550.301,154.766 549.278,154.679C 548.254,154.591 547.275,154.445 546.339,154.24C 545.228,154.24 544.153,154.196 543.115,154.108C 542.077,154.021 541.09,153.977 540.154,153.977L 537.347,153.977C 536.236,153.977 535.402,154.065 534.847,154.24C 534.086,154.62 532.493,155 530.066,155.38L 528.925,155.38L 526.118,167.18L 517.433,185.12L 516.863,203.937L 511.818,214.903L 499.186,218.807C 495.062,218.807 491.692,218.39 489.075,217.557C 486.458,216.724 484.301,215.737 482.605,214.596C 480.354,214.041 478.76,213.39 477.824,212.644C 476.888,211.899 476.143,211.146 475.587,210.385L 483.439,171.654L 492.167,147.529L 485.983,150.599L 469.139,165.776L 431.241,172.794L 423.082,154.24L 427.03,143.318L 496.071,136.3L 500.282,124.764L 501.159,120.86C 503.031,119.719 504.34,118.447 505.085,117.044C 505.831,115.64 506.014,114.288 505.634,112.986C 505.253,111.685 504.266,110.567 502.673,109.631C 501.079,108.695 499.069,108.227 496.642,108.227L 486.553,109.631L 460.454,107.92C 457.998,106.984 455.132,106.707 451.857,107.087C 448.582,107.467 446.111,108.49 444.444,110.157L 433.785,106.517L 426.46,80.988L 459.314,77.3473L 483.175,77.3473C 489.726,77.3473 496.415,77.435 503.243,77.6105C 510.071,77.786 515.737,78.0637 520.24,78.4439L 530.899,82.0846L 545.505,88.0061L 546.909,96.4279L 542.961,101.472L 535.68,127.571C 538.107,126.84 540.724,126.145 543.532,125.488C 546.339,124.83 549.336,124.223 552.524,123.667L 565.727,126.167C 567.949,125.612 569.674,124.866 570.902,123.93C 572.131,122.995 572.555,121.869 572.174,120.553L 564.586,115.772L 561.209,109.894L 569.06,77.3473L 587.878,70.8556 Z M 621.302,154.81L 619.328,142.178L 621.565,133.756L 619.328,121.957L 620.995,95.2875L 619.591,87.4359L 619.898,67.2148C 619.898,65.1679 622.705,63.9543 628.32,63.5742L 632.531,63.5742C 633.466,63.5742 634.307,63.5742 635.053,63.5742C 635.798,63.5742 636.639,63.6619 637.575,63.8374C 639.446,63.8374 641.362,63.8885 643.321,63.9909C 645.28,64.0932 647.386,64.1444 649.637,64.1444C 652.445,64.3198 654.55,65.1605 655.954,66.6666C 657.357,68.1725 658.439,70.0367 659.2,72.2591L 659.2,88.5764L 661.173,117.746L 660.866,152.573L 656.085,172.794L 656.656,194.682L 652.182,210.385L 653.015,223.851C 650.968,228.179 648.775,230.482 646.435,230.76C 644.096,231.038 641.523,231.177 638.715,231.177C 635.528,231.732 632.428,232.01 629.416,232.01L 623.275,232.01C 621.579,232.01 620.402,231.586 619.744,230.738C 619.086,229.89 618.757,228.91 618.757,227.799C 618.582,226.688 618.582,225.197 618.757,223.325L 619.328,163.232L 621.302,154.81 Z "/>
	</g>
	<ellipse fill="#000000" fill-opacity="1" stroke-width="50800" stroke-linejoin="miter" cx="175.135" cy="519.995" rx="172.325" ry="172.325"/>
	<ellipse fill="none" stroke-width="5.61981" stroke-linejoin="miter" stroke="#FFFFFF" stroke-opacity="1" cx="175.135" cy="519.995" rx="172.325" ry="172.325"/>
	<g>
		<path fill="#FFFFFF" fill-opacity="1" stroke-linejoin="round" d="M 235.509,442.801C 244.019,441.585 249.867,441.67 253.053,443.056C 267.034,450.789 271.289,459.518 265.818,469.244C 264.603,470.776 261.636,471.384 256.919,471.068C 249.478,470.63 241.965,469.876 234.378,468.807C 228.299,467.445 225.564,470.107 226.171,476.794C 229.649,535.298 229.564,577.085 225.916,602.154C 224.871,611.88 220.238,618.567 212.02,622.215C 208.834,624.354 205.868,627.017 203.12,630.202C 193.564,638.251 186.731,637.57 182.622,628.16C 180.336,621.911 176.531,617.57 171.206,615.139C 169.698,614.993 168.482,614.008 167.558,612.184C 167.729,611.431 170.087,611.2 174.634,611.491L 183.971,612.403C 188.689,613.473 192.871,610.969 196.518,604.89C 198.342,600.95 199.862,594.872 201.078,586.653C 203.363,540.769 203.594,505.815 201.771,481.791C 202.062,472.673 198.488,468.794 191.047,470.156C 180.421,471.688 168.264,474.727 154.574,479.275C 141.054,485.353 129.054,489.086 118.574,490.472C 113.541,491.08 108.593,490.168 103.729,487.736C 91.1339,481.195 88.5564,473.512 95.9971,464.685C 99.4985,461.354 106.331,458.618 116.495,456.478C 144.021,451.615 183.692,447.056 235.509,442.801 Z M 158.695,508.235C 162.343,506.119 166.367,505.815 170.768,507.323C 178.063,512.332 179.582,520.161 175.327,530.812C 173.795,535.213 173.029,538.252 173.029,539.93C 176.531,547.079 175.169,553 168.944,557.693C 159.826,562.264 150.708,567.054 141.589,572.063C 138.696,574.811 137.103,576.489 136.811,577.097C 134.209,581.498 131.012,582.252 127.219,579.358C 125.711,578.288 123.96,576.234 121.966,573.194C 112.24,557.097 107.073,541.9 106.465,527.602C 105.857,521.231 107.766,515.541 112.191,510.532C 114.769,509.146 118.331,509.9 122.878,512.794C 125.31,514.763 129.65,514.994 135.899,513.487C 143.486,512.125 151.084,510.374 158.695,508.235 Z M 156.179,521.912C 151.461,521.158 143.486,524.66 132.252,532.417C 128.288,536.356 127.377,540.915 129.516,546.094C 131.34,557.79 137.796,559.456 148.884,551.091C 155.717,543.942 158.683,536.271 157.783,528.076C 157.467,524.283 156.932,522.228 156.179,521.912 Z "/>
	</g>
	<ellipse fill="#000000" fill-opacity="1" stroke-width="50800" stroke-linejoin="miter" cx="175.135" cy="175.24" rx="172.325" ry="172.43"/>
	<ellipse fill="none" stroke-width="5.61981" stroke-linejoin="miter" stroke="#FFFFFF" stroke-opacity="1" cx="175.135" cy="175.24" rx="172.325" ry="172.43"/>
	<g>
		<path fill="#FFFFFF" fill-opacity="1" stroke-linejoin="round" d="M 63.4639,246.284C 58.6007,243.852 55.3667,241.457 53.7619,239.099C 52.157,236.74 50.1388,233.737 47.7072,230.09C 45.2757,226.442 42.8441,222.989 40.4125,219.731C 37.9809,216.473 35.9323,212.26 34.2667,207.093C 32.6011,201.926 31.7683,196.68 31.7683,191.355C 31.7683,186.029 31.6163,175.695 31.3123,160.352C 31.0084,145.009 33.9688,119.623 40.1937,84.195C 40.1937,76.0006 41.0326,68.9005 42.7104,62.8944C 44.3881,56.8885 47.3547,52.8581 51.6099,50.8034C 55.8652,48.7487 59.9685,48.0254 63.9198,48.6333C 67.8711,49.2412 71.4029,50.688 74.5154,52.9736C 77.6278,55.2593 78.8436,59.7456 78.1627,66.4324C 77.4819,73.1192 76.2661,79.1617 74.5154,84.5598C 72.7646,89.9578 69.4577,101.082 64.5945,117.933C 64.5945,134.808 65.9988,150.96 68.8072,166.388C 71.6157,181.817 73.0199,194.771 73.0199,205.251L 76.6673,230.564C 75.3056,241.506 74.1689,247.469 73.257,248.454C 72.3452,249.439 71.2449,249.931 69.9562,249.931C 68.6674,249.931 66.5033,248.715 63.4639,246.284 Z M 112.01,246.977C 107.755,244.837 105.627,243.159 105.627,241.943C 105.627,240.728 106.272,238.144 107.56,234.193C 108.849,230.242 111.281,224.813 114.855,217.907C 118.43,211.002 122.077,204.126 125.797,197.282C 129.518,190.437 131.761,185.002 132.527,180.978C 133.293,176.954 133.676,157.993 133.676,124.097L 131.378,116.802L 127.512,115.453C 106.527,118.784 94.819,119.465 92.3874,117.495C 89.9559,115.526 88.3632,113.477 87.6094,111.35C 86.8556,109.222 86.0593,106.596 85.2204,103.471C 84.3815,100.347 83.962,93.9213 83.962,84.195C 88.8252,81.6176 94.8676,80.3288 102.089,80.3288C 109.311,80.3288 118.235,77.8973 128.861,73.0341C 130.539,69.0949 132.174,65.3382 133.767,61.7638C 135.359,58.1894 136.575,54.3475 137.414,50.2381C 138.253,46.1287 138.976,42.0316 139.584,37.9465L 155.304,36.7793C 161.092,39.2109 165.62,42.8582 168.891,47.7214C 172.161,52.5846 174.362,56.8034 175.493,60.3778C 176.623,63.9522 177.383,66.7667 177.772,68.8214C 178.161,70.8761 173.942,77.1435 165.116,87.6236C 174.842,88.5476 185.334,89.3864 196.593,90.1402L 203.887,93.7876C 205.541,100.158 202.915,106.578 196.009,113.046C 189.103,119.514 184.046,123.197 180.836,124.097L 166.502,124.097L 166.502,139.817C 165.578,146.358 164.696,152.857 163.858,159.312C 163.019,165.768 161.614,172.188 159.645,178.571C 157.675,184.953 155.244,190.996 152.35,196.698C 149.457,202.4 146.605,207.871 143.797,213.111C 140.989,218.351 137.797,223.597 134.223,228.849C 130.648,234.102 127.645,237.713 125.214,239.682C 122.782,241.652 118.381,244.083 112.01,246.977 Z "/>
	</g>
	<ellipse fill="#000000" fill-opacity="1" stroke-width="50800" stroke-linejoin="miter" cx="519.784" cy="519.995" rx="172.325" ry="172.325"/>
	<ellipse fill="none" stroke-width="5.42603" stroke-linejoin="miter" stroke="#FFFFFF" stroke-opacity="1" cx="519.784" cy="519.995" rx="172.325" ry="172.325"/>
	<path fill="#FFFFFF" fill-opacity="1" stroke-width="50800" stroke-linejoin="miter" d="M 413.832,572.978C 416.568,573.915 419.228,575.525 421.812,577.807C 424.395,580.089 426.187,583.668 427.188,588.544C 428.015,592.798 428.998,596.597 430.137,599.939C 431.277,603.281 432.769,606.248 434.614,608.839C 436.458,611.43 438.816,613.666 441.687,615.545C 444.557,617.425 448.195,618.961 452.601,620.154C 451.541,621.249 450.245,622.171 448.715,622.921C 447.184,623.671 445.734,624.224 444.364,624.58C 442.761,625.208 441.075,625.589 439.308,625.721C 435.17,626.413 431.721,626.132 428.961,624.879C 426.201,623.626 423.959,621.668 422.236,619.004C 420.513,616.34 419.135,613.206 418.103,609.602C 417.071,605.997 416.219,602.253 415.546,598.368C 415.297,596.736 414.98,595.046 414.595,593.297C 414.21,591.549 413.64,589.878 412.885,588.284C 412.131,586.69 411.165,585.239 409.988,583.931C 408.811,582.622 407.373,581.651 405.675,581.017C 403.059,583.371 400.642,585.425 398.425,587.179C 396.208,588.932 394.253,590.38 392.561,591.522C 393.199,598.33 393.968,603.922 394.867,608.298C 395.767,612.674 396.779,615.581 397.902,617.021C 397.066,617.718 396.222,618.321 395.372,618.829C 394.521,619.337 393.79,619.741 393.178,620.041C 392.322,620.486 391.521,620.8 390.773,620.983C 388.304,621.93 386.057,622.004 384.029,621.204C 382.001,620.404 380.772,617.988 380.343,613.958L 370.91,503.452C 370.834,502.442 371.735,501.327 373.611,500.107C 375.487,498.887 377.601,497.872 379.952,497.061C 382.304,496.249 384.458,495.77 386.415,495.624C 388.371,495.477 389.329,495.976 389.288,497.122C 389.563,505.861 389.8,514.096 389.999,521.825C 390.198,529.555 390.394,536.395 390.586,542.348C 390.729,549.32 390.887,555.656 391.06,561.356C 391.063,564.783 391.152,568.078 391.326,571.239C 391.499,574.399 391.632,577.436 391.723,580.35C 393.98,578.276 396.349,576.003 398.829,573.532C 401.31,571.061 403.645,568.346 405.836,565.389C 408.026,562.432 409.821,559.282 411.221,555.94C 412.62,552.597 413.309,549.086 413.287,545.406C 414.6,544.292 415.956,543.333 417.356,542.53C 418.756,541.726 420.01,541.093 421.117,540.629C 422.468,540.02 423.712,539.672 424.848,539.587C 427.742,539.243 429.494,539.747 430.103,541.097C 430.557,542.079 430.637,543.565 430.342,545.555C 430.047,547.545 429.275,549.951 428.027,552.774C 426.779,555.598 425.013,558.714 422.73,562.122C 420.446,565.531 417.48,569.149 413.832,572.978 Z M 478.186,615.759C 469.348,616.422 462.308,613.966 457.066,608.393C 451.824,602.819 448.842,595.235 448.123,585.64C 447.621,578.949 448.128,572.595 449.644,566.578C 451.161,560.561 453.399,555.283 456.359,550.744C 459.32,546.206 462.885,542.542 467.056,539.753C 471.227,536.965 475.711,535.391 480.509,535.031C 485.18,534.68 489.282,536.055 492.815,539.154C 496.349,542.253 498.347,546.896 498.811,553.082C 499.114,557.122 498.531,561.196 497.062,565.306C 495.593,569.415 493.554,573.123 490.946,576.429C 488.337,579.735 485.4,582.463 482.133,584.612C 478.867,586.762 475.655,587.955 472.499,588.191C 470.479,588.343 468.756,588.218 467.329,587.818C 465.903,587.417 464.584,586.754 463.372,585.829C 464.29,592.997 466.245,597.897 469.235,600.529C 472.226,603.161 475.93,604.311 480.349,603.98C 483.379,603.753 486.014,602.92 488.255,601.483C 490.496,600.045 492.375,598.444 493.893,596.68C 495.411,594.915 496.611,593.143 497.494,591.363C 498.376,589.583 498.973,588.237 499.285,587.325C 499.607,586.539 500.242,586.11 501.189,586.039C 502.135,585.968 502.666,586.69 502.779,588.205C 502.884,589.594 502.569,591.744 501.835,594.656C 501.101,597.567 499.768,600.524 497.835,603.525C 495.902,606.527 493.343,609.226 490.158,611.623C 486.974,614.02 482.983,615.399 478.186,615.759 Z M 481.498,543.145C 480.741,543.202 479.38,544.098 477.415,545.832C 475.45,547.566 473.414,550.036 471.305,553.241C 469.197,556.446 467.323,560.237 465.684,564.613C 464.044,568.989 463.171,573.847 463.064,579.187C 470.506,576.852 476.294,573.624 480.429,569.505C 484.563,565.386 486.356,559.666 485.806,552.344C 485.532,548.683 484.903,546.222 483.92,544.963C 482.937,543.704 482.129,543.098 481.498,543.145 Z "/>
</svg>
