<?xml version="1.0" encoding="utf-8"?>
<!DOCTYPE svg PUBLIC "-//W3C//DTD SVG 1.1//EN" "http://www.w3.org/Graphics/SVG/1.1/DTD/svg11.dtd">
<svg xmlns="http://www.w3.org/2000/svg" xmlns:xlink="http://www.w3.org/1999/xlink" version="1.1" baseProfile="full" width="905.975" height="605.896" viewBox="0 0 905.98 605.90" enable-background="new 0 0 905.98 605.90" xml:space="preserve">
	<ellipse fill="#000000" fill-opacity="1" stroke-linejoin="round" cx="453.151" cy="152.653" rx="150.295" ry="150.388"/>
	<ellipse fill="none" stroke-width="4.26331" stroke-linejoin="miter" stroke="#FFFFFF" stroke-opacity="1" cx="453.151" cy="152.653" rx="150.295" ry="150.388"/>
	<g>
		<path fill="#FFFFFF" fill-opacity="1" stroke-linejoin="round" d="M 512.54,61.6119L 520.88,66.0496C 521.849,66.5342 522.582,67.2674 523.08,68.2493C 523.577,69.2312 523.826,71.6733 523.826,75.5754C 523.826,86.5166 523.743,98.07 523.577,110.235C 523.411,122.401 523.163,133.865 522.831,144.628L 521.607,150.251L 522.602,162.493L 520.383,173.779C 520.23,173.932 520.153,174.251 520.153,174.735L 520.153,175.73C 520.153,176.062 520.191,176.387 520.268,176.706C 520.344,177.024 520.383,177.273 520.383,177.452L 520.383,179.403C 520.383,179.734 520.421,180.059 520.497,180.378C 520.574,180.697 520.612,180.946 520.612,181.124C 520.612,183.879 519.477,186.888 517.207,190.153L 495.172,191.147C 493.693,191.147 492.953,190.21 492.953,188.335C 492.953,186.461 493.45,184.542 494.445,182.578L 493.948,174.009L 496.128,167.658L 493.68,149.295L 493.68,138.277C 493.68,137.283 493.151,136.218 492.092,135.083C 491.034,133.948 489.523,133.623 487.559,134.107C 486.59,134.439 485.614,134.643 484.632,134.719C 483.65,134.796 482.675,134.834 481.706,134.834C 480.711,134.834 479.767,134.796 478.875,134.719C 477.982,134.643 477.128,134.515 476.312,134.337C 475.342,134.337 474.405,134.299 473.5,134.222C 472.594,134.146 471.734,134.107 470.917,134.107L 468.469,134.107C 467.5,134.107 466.773,134.184 466.288,134.337C 465.625,134.668 464.235,135 462.118,135.332L 461.124,135.332L 458.675,145.622L 451.101,161.269L 450.603,177.681L 446.204,187.245L 435.186,190.65C 431.59,190.65 428.651,190.287 426.368,189.56C 424.085,188.833 422.205,187.972 420.725,186.977C 418.761,186.493 417.371,185.925 416.555,185.275C 415.739,184.625 415.089,183.968 414.604,183.305L 421.452,149.525L 429.065,128.484L 423.671,131.162L 408.981,144.398L 375.927,150.519L 368.812,134.337L 372.255,124.811L 432.47,118.69L 436.143,108.629L 436.908,105.224C 438.54,104.229 439.681,103.12 440.332,101.896C 440.982,100.671 441.141,99.4919 440.81,98.3569C 440.478,97.222 439.617,96.2464 438.227,95.4303C 436.838,94.6142 435.084,94.2062 432.967,94.2062L 424.168,95.4303L 401.406,93.9383C 399.264,93.1222 396.764,92.8799 393.908,93.2115C 391.051,93.543 388.896,94.4356 387.442,95.8894L 378.146,92.7141L 371.757,70.4491L 400.411,67.2738L 421.223,67.2738C 426.936,67.2738 432.77,67.3503 438.725,67.5033C 444.68,67.6563 449.621,67.8987 453.549,68.2302L 462.845,71.4054L 475.585,76.57L 476.809,83.9153L 473.366,88.3147L 467.015,111.077C 469.132,110.439 471.415,109.834 473.863,109.26C 476.312,108.686 478.926,108.157 481.706,107.672L 493.221,109.853C 495.159,109.368 496.664,108.718 497.735,107.902C 498.806,107.086 499.176,106.104 498.844,104.956L 492.226,100.786L 489.28,95.6599L 496.128,67.2738L 512.54,61.6119 Z M 541.691,134.834L 539.97,123.816L 541.921,116.471L 539.97,106.18L 541.424,82.9206L 540.199,76.0727L 540.467,58.4366C 540.467,56.6513 542.916,55.5929 547.812,55.2613L 551.485,55.2613C 552.301,55.2613 553.034,55.2613 553.685,55.2613C 554.335,55.2613 555.068,55.3379 555.884,55.4909C 557.517,55.4909 559.187,55.5355 560.896,55.6248C 562.605,55.714 564.441,55.7586 566.405,55.7586C 568.853,55.9117 570.69,56.6449 571.914,57.9584C 573.138,59.2718 574.082,60.8977 574.745,62.836L 574.745,77.0674L 576.466,102.508L 576.198,132.883L 572.029,150.519L 572.526,169.609L 568.624,183.305L 569.351,195.049C 567.565,198.824 565.653,200.832 563.612,201.075C 561.572,201.317 559.328,201.438 556.879,201.438C 554.099,201.923 551.396,202.165 548.769,202.165L 543.413,202.165C 541.934,202.165 540.907,201.795 540.333,201.056C 539.759,200.316 539.473,199.462 539.473,198.492C 539.32,197.523 539.32,196.223 539.473,194.59L 539.97,142.179L 541.691,134.834 Z "/>
	</g>
	<ellipse fill="#000000" fill-opacity="1" stroke-width="50800" stroke-linejoin="miter" cx="152.56" cy="453.336" rx="150.295" ry="150.295"/>
	<ellipse fill="none" stroke-width="4.52976" stroke-linejoin="miter" stroke="#FFFFFF" stroke-opacity="1" cx="152.56" cy="453.336" rx="150.295" ry="150.295"/>
	<g>
		<path fill="#FFFFFF" fill-opacity="1" stroke-linejoin="round" d="M 205.217,386.009C 212.639,384.949 217.739,385.023 220.518,386.232C 232.712,392.976 236.423,400.589 231.651,409.072C 230.591,410.408 228.004,410.939 223.89,410.663C 217.4,410.281 210.847,409.624 204.23,408.691C 198.929,407.503 196.543,409.825 197.073,415.657C 200.106,466.682 200.031,503.127 196.85,524.992C 195.938,533.475 191.898,539.307 184.73,542.488C 181.952,544.354 179.365,546.676 176.968,549.454C 168.634,556.474 162.675,555.88 159.091,547.673C 157.097,542.223 153.778,538.437 149.134,536.316C 147.819,536.189 146.759,535.33 145.953,533.74C 146.101,533.082 148.158,532.881 152.124,533.135L 160.268,533.931C 164.382,534.864 168.029,532.679 171.211,527.378C 172.801,523.942 174.127,518.64 175.187,511.472C 177.18,471.454 177.382,440.968 175.791,420.015C 176.046,412.063 172.928,408.68 166.439,409.868C 157.171,411.204 146.568,413.855 134.628,417.82C 122.837,423.122 112.371,426.378 103.23,427.586C 98.8405,428.117 94.5249,427.321 90.2834,425.201C 79.298,419.496 77.05,412.794 83.5395,405.096C 86.5933,402.191 92.5526,399.805 101.417,397.939C 125.424,393.697 160.024,389.721 205.217,386.009 Z M 138.223,443.078C 141.404,441.233 144.913,440.968 148.752,442.283C 155.114,446.652 156.44,453.481 152.728,462.769C 151.392,466.608 150.724,469.259 150.724,470.722C 153.778,476.957 152.591,482.121 147.161,486.214C 139.209,490.201 131.256,494.379 123.303,498.748C 120.78,501.144 119.39,502.607 119.136,503.138C 116.867,506.976 114.078,507.633 110.77,505.11C 109.455,504.177 107.928,502.385 106.189,499.734C 97.7059,485.694 93.1994,472.44 92.6692,459.97C 92.139,454.414 93.8038,449.451 97.6635,445.082C 99.9115,443.874 103.018,444.531 106.984,447.055C 109.105,448.772 112.89,448.974 118.341,447.659C 124.957,446.472 131.585,444.945 138.223,443.078 Z M 136.028,455.007C 131.913,454.35 124.957,457.404 115.16,464.169C 111.703,467.605 110.908,471.581 112.774,476.098C 114.364,486.299 119.995,487.752 129.665,480.456C 135.625,474.221 138.212,467.53 137.427,460.384C 137.152,457.075 136.685,455.283 136.028,455.007 Z "/>
	</g>
	<ellipse fill="#000000" fill-opacity="1" stroke-width="50800" stroke-linejoin="miter" cx="152.56" cy="152.653" rx="150.295" ry="150.388"/>
	<ellipse fill="none" stroke-width="4.52976" stroke-linejoin="miter" stroke="#FFFFFF" stroke-opacity="1" cx="152.56" cy="152.653" rx="150.295" ry="150.388"/>
	<g>
		<path fill="#FFFFFF" fill-opacity="1" stroke-linejoin="round" d="M 55.1651,214.614C 50.9236,212.493 48.1031,210.405 46.7034,208.347C 45.3037,206.29 43.5435,203.671 41.4227,200.49C 39.302,197.309 37.1813,194.298 35.0605,191.456C 32.9398,188.614 31.1531,184.94 29.7004,180.433C 28.2477,175.927 27.5213,171.351 27.5213,166.707C 27.5213,162.062 27.3888,153.049 27.1237,139.667C 26.8586,126.286 29.4406,104.145 34.8697,73.2461C 34.8697,66.0992 35.6013,59.9067 37.0646,54.6685C 38.5279,49.4303 41.1152,45.9151 44.8265,44.1231C 48.5378,42.3312 52.1165,41.7002 55.5627,42.2304C 59.0089,42.7606 62.0893,44.0224 64.8038,46.0159C 67.5184,48.0094 68.5788,51.9222 67.9849,57.7542C 67.3911,63.5862 66.3308,68.8562 64.8038,73.5642C 63.2769,78.2723 60.3927,87.9746 56.1512,102.671C 56.1512,117.389 57.376,131.476 59.8254,144.932C 62.2749,158.388 63.4996,169.686 63.4996,178.827L 66.6807,200.904C 65.4931,210.447 64.5016,215.648 63.7064,216.507C 62.9111,217.366 61.9515,217.795 60.8275,217.795C 59.7035,217.795 57.816,216.735 55.1651,214.614 Z M 97.5056,215.219C 93.7943,213.352 91.9386,211.889 91.9386,210.829C 91.9386,209.768 92.5006,207.515 93.6246,204.069C 94.7486,200.623 96.8693,195.888 99.9868,189.865C 103.104,183.842 106.285,177.846 109.53,171.876C 112.775,165.906 114.731,161.166 115.399,157.657C 116.067,154.147 116.401,137.61 116.401,108.047L 114.397,101.685L 111.025,100.508C 92.7233,103.414 82.512,104.007 80.3912,102.29C 78.2705,100.572 76.8814,98.785 76.224,96.9294C 75.5666,95.0738 74.872,92.7834 74.1404,90.0582C 73.4087,87.3331 73.0429,81.729 73.0429,73.2461C 77.2843,70.9981 82.5544,69.8741 88.853,69.8741C 95.1515,69.8741 102.935,67.7534 112.202,63.5119C 113.666,60.0764 115.092,56.7998 116.481,53.6824C 117.87,50.5649 118.93,47.2142 119.662,43.6301C 120.394,40.046 121.024,36.4726 121.555,32.9098L 135.265,31.8918C 140.313,34.0126 144.262,37.1936 147.115,41.4351C 149.967,45.6766 151.886,49.3561 152.873,52.4736C 153.859,55.591 154.521,58.0458 154.861,59.8377C 155.2,61.6298 151.521,67.096 143.822,76.2364C 152.305,77.0422 161.456,77.7739 171.275,78.4313L 177.637,81.6124C 179.08,87.1687 176.789,92.7674 170.766,98.4087C 164.743,104.05 160.332,107.263 157.533,108.047L 145.031,108.047L 145.031,121.758C 144.225,127.463 143.457,133.13 142.725,138.761C 141.993,144.391 140.769,149.99 139.051,155.557C 137.333,161.124 135.212,166.394 132.689,171.367C 130.165,176.34 127.678,181.112 125.229,185.682C 122.779,190.252 119.996,194.828 116.878,199.409C 113.761,203.989 111.142,207.139 109.021,208.856C 106.9,210.574 103.062,212.695 97.5056,215.219 Z "/>
	</g>
	<ellipse fill="#000000" fill-opacity="1" stroke-width="50800" stroke-linejoin="miter" cx="453.151" cy="453.336" rx="150.295" ry="150.295"/>
	<ellipse fill="none" stroke-width="4.26331" stroke-linejoin="miter" stroke="#FFFFFF" stroke-opacity="1" cx="453.151" cy="453.336" rx="150.295" ry="150.295"/>
	<path fill="#FFFFFF" fill-opacity="1" stroke-width="50800" stroke-linejoin="miter" d="M 360.744,499.545C 363.13,500.363 365.45,501.767 367.703,503.757C 369.956,505.747 371.519,508.868 372.392,513.121C 373.113,516.832 373.971,520.145 374.965,523.06C 375.958,525.975 377.26,528.562 378.869,530.822C 380.478,533.082 382.534,535.032 385.038,536.671C 387.541,538.31 390.714,539.65 394.557,540.69C 393.632,541.646 392.502,542.45 391.167,543.104C 389.832,543.758 388.567,544.24 387.373,544.551C 385.974,545.099 384.504,545.431 382.963,545.546C 379.354,546.149 376.346,545.904 373.939,544.811C 371.532,543.719 369.577,542.011 368.074,539.687C 366.571,537.364 365.369,534.631 364.469,531.487C 363.569,528.344 362.825,525.078 362.239,521.689C 362.021,520.266 361.745,518.792 361.409,517.267C 361.073,515.742 360.576,514.284 359.918,512.894C 359.26,511.504 358.418,510.239 357.391,509.098C 356.364,507.957 355.111,507.11 353.63,506.556C 351.348,508.61 349.24,510.401 347.306,511.93C 345.372,513.46 343.668,514.722 342.192,515.719C 342.749,521.656 343.419,526.534 344.204,530.35C 344.988,534.167 345.87,536.703 346.85,537.958C 346.121,538.566 345.385,539.092 344.643,539.535C 343.902,539.978 343.264,540.331 342.73,540.592C 341.984,540.98 341.285,541.254 340.632,541.414C 338.48,542.24 336.519,542.304 334.75,541.606C 332.982,540.908 331.91,538.802 331.536,535.287L 323.309,438.907C 323.243,438.026 324.028,437.054 325.664,435.99C 327.301,434.926 329.145,434.04 331.195,433.333C 333.246,432.625 335.125,432.208 336.831,432.08C 338.538,431.952 339.373,432.387 339.338,433.386C 339.577,441.009 339.784,448.19 339.957,454.932C 340.131,461.673 340.302,467.639 340.47,472.831C 340.594,478.912 340.732,484.438 340.883,489.409C 340.886,492.398 340.963,495.271 341.114,498.028C 341.266,500.785 341.382,503.434 341.461,505.974C 343.43,504.166 345.495,502.184 347.659,500.029C 349.823,497.873 351.859,495.506 353.77,492.927C 355.68,490.347 357.246,487.6 358.466,484.685C 359.687,481.77 360.288,478.707 360.268,475.498C 361.414,474.526 362.597,473.69 363.817,472.989C 365.038,472.289 366.132,471.736 367.098,471.332C 368.276,470.8 369.361,470.497 370.351,470.423C 372.876,470.123 374.403,470.562 374.935,471.74C 375.331,472.596 375.401,473.892 375.143,475.628C 374.886,477.363 374.213,479.462 373.124,481.924C 372.036,484.387 370.496,487.104 368.504,490.077C 366.513,493.05 363.926,496.206 360.744,499.545 Z M 416.871,536.857C 409.163,537.435 403.023,535.294 398.451,530.433C 393.879,525.572 391.279,518.957 390.651,510.589C 390.213,504.753 390.655,499.211 391.978,493.963C 393.301,488.715 395.253,484.112 397.835,480.154C 400.417,476.195 403.526,473 407.164,470.568C 410.802,468.136 414.713,466.763 418.897,466.449C 422.971,466.143 426.548,467.342 429.63,470.045C 432.712,472.748 434.455,476.797 434.86,482.193C 435.124,485.716 434.616,489.27 433.334,492.854C 432.053,496.438 430.275,499.672 428,502.555C 425.725,505.439 423.163,507.818 420.314,509.692C 417.465,511.567 414.664,512.607 411.911,512.814C 410.15,512.946 408.647,512.837 407.402,512.488C 406.158,512.138 405.008,511.56 403.95,510.754C 404.752,517.005 406.456,521.279 409.064,523.574C 411.673,525.87 414.904,526.873 418.757,526.584C 421.4,526.386 423.698,525.66 425.653,524.406C 427.607,523.152 429.246,521.756 430.57,520.217C 431.894,518.678 432.941,517.133 433.71,515.58C 434.48,514.027 435.001,512.853 435.273,512.058C 435.554,511.372 436.107,510.999 436.933,510.937C 437.759,510.875 438.221,511.505 438.32,512.826C 438.411,514.037 438.137,515.912 437.497,518.452C 436.857,520.991 435.694,523.57 434.008,526.187C 432.322,528.805 430.09,531.16 427.313,533.25C 424.535,535.341 421.055,536.543 416.871,536.857 Z M 419.76,473.526C 419.099,473.576 417.912,474.357 416.199,475.869C 414.485,477.382 412.709,479.536 410.87,482.332C 409.031,485.127 407.397,488.433 405.967,492.25C 404.537,496.066 403.775,500.303 403.682,504.961C 410.173,502.924 415.221,500.109 418.827,496.517C 422.433,492.924 423.996,487.935 423.517,481.549C 423.278,478.356 422.729,476.21 421.872,475.112C 421.014,474.013 420.31,473.485 419.76,473.526 Z "/>
	<ellipse fill="#000000" fill-opacity="1" stroke-width="50800" stroke-linejoin="miter" cx="753.742" cy="152.653" rx="150.295" ry="150.388"/>
	<ellipse fill="none" stroke-width="3.87573" stroke-linejoin="miter" stroke="#FFFFFF" stroke-opacity="1" cx="753.742" cy="152.653" rx="150.295" ry="150.388"/>
	<ellipse fill="#000000" fill-opacity="1" stroke-width="50800" stroke-linejoin="miter" cx="753.742" cy="453.336" rx="150.295" ry="150.295"/>
	<ellipse fill="none" stroke-width="3.87573" stroke-linejoin="miter" stroke="#BBE3FB" stroke-opacity="1" cx="753.742" cy="453.336" rx="150.295" ry="150.295"/>
	<g>
		<path fill="#DC143C" fill-opacity="1" stroke-linejoin="round" d="M 693.145,103.044C 693.251,102.019 693.701,101.198 694.496,100.58C 695.292,99.9612 696.192,99.7051 697.199,99.8111L 810.672,108.636C 811.679,108.636 812.523,109.002 813.203,109.735C 813.883,110.468 814.17,111.4 814.064,112.531L 813.72,116.956C 813.614,117.964 813.163,118.807 812.368,119.487C 811.573,120.167 810.663,120.508 809.639,120.508L 756.559,116.453C 755.552,116.329 754.567,116.55 753.605,117.116C 752.642,117.681 751.931,118.476 751.471,119.501L 716.359,205.493C 716.023,206.394 715.347,207.043 714.332,207.441C 713.316,207.838 712.357,207.86 711.456,207.507L 701.784,203.611C 700.883,203.17 700.234,202.494 699.836,201.584C 699.439,200.674 699.408,199.716 699.743,198.709L 732.815,117.964C 733.151,117.063 733.094,116.245 732.643,115.512C 732.193,114.779 731.464,114.351 730.457,114.227L 696.537,111.683C 695.406,111.577 694.501,111.127 693.821,110.332C 693.141,109.537 692.854,108.636 692.959,107.629L 693.145,103.044 Z M 753.353,142.052C 753.565,141.027 754.095,140.263 754.943,139.76C 755.791,139.256 756.727,139.058 757.752,139.163L 797.263,147.484C 798.164,147.59 798.986,148.067 799.728,148.915C 800.47,149.763 800.779,150.753 800.655,151.883L 797.767,204.963C 797.661,205.988 797.21,206.809 796.415,207.427C 795.62,208.046 794.772,208.302 793.871,208.196L 770.313,205.652C 769.182,205.546 768.303,205.069 767.676,204.221C 767.049,203.373 766.797,202.437 766.921,201.412L 767.928,194.283C 768.034,193.153 768.484,192.278 769.279,191.66C 770.074,191.042 770.984,190.785 772.009,190.891L 779.8,191.739C 780.824,191.863 781.703,191.611 782.437,190.984C 783.17,190.357 783.589,189.478 783.695,188.347L 785.047,163.755C 785.17,162.748 784.866,161.821 784.133,160.973C 783.399,160.125 782.573,159.586 781.655,159.356L 754.704,153.765C 753.803,153.641 753.039,153.129 752.412,152.228C 751.785,151.327 751.533,150.426 751.657,149.525L 753.353,142.052 Z "/>
	</g>
	<image x="0" y="0" width="392" height="446" transform="matrix(0.18,0.00,0.00,0.18,651.74,419.63)" xlink:href="xavatars_files/image0.png"/>
	<g>
		<path fill="#FBE5D6" fill-opacity="1" stroke-linejoin="round" d="M 682.172,456.715L 680.169,458.811L 680.169,465.406L 676.972,465.406L 676.972,438.851L 680.169,438.851L 680.169,454.878L 681.879,452.814L 687.704,446.64L 691.594,446.64L 684.319,454.48L 692.446,465.406L 688.689,465.406L 682.172,456.715 Z "/>
	</g>
	<image x="0" y="0" width="397" height="446" transform="matrix(0.18,0.00,0.00,0.18,674.05,419.63)" xlink:href="xavatars_files/image1.png"/>
	<g>
		<path fill="#DEEBF7" fill-opacity="1" stroke-linejoin="round" d="M 707.023,465.76C 704.486,465.76 702.422,464.924 700.833,463.251C 699.243,461.579 698.448,459.343 698.448,456.543L 698.448,455.951C 698.448,454.089 698.802,452.426 699.51,450.964C 700.219,449.501 701.21,448.356 702.484,447.528C 703.758,446.7 705.139,446.286 706.625,446.286C 709.056,446.286 710.945,447.114 712.293,448.77C 713.641,450.426 714.315,452.798 714.315,455.885L 714.315,457.262L 701.646,457.262C 701.69,458.955 702.229,460.323 703.261,461.365C 704.294,462.407 705.605,462.928 707.195,462.928C 708.324,462.928 709.28,462.716 710.063,462.291C 710.847,461.867 711.534,461.305 712.124,460.604L 714.077,462.131C 712.51,464.55 710.158,465.76 707.023,465.76 Z M 706.625,449.119C 705.334,449.119 704.251,449.585 703.375,450.516C 702.499,451.447 701.958,452.752 701.751,454.43L 711.117,454.43L 711.117,454.192C 711.025,452.58 710.587,451.332 709.803,450.447C 709.02,449.561 707.96,449.119 706.625,449.119 Z "/>
	</g>
	<image x="0" y="0" width="392" height="446" transform="matrix(0.18,0.00,0.00,0.18,697.24,419.63)" xlink:href="xavatars_files/image2.png"/>
	<g>
		<path fill="#E2F0D9" fill-opacity="1" stroke-linejoin="round" d="M 727.67,456.715L 725.667,458.811L 725.667,465.406L 722.47,465.406L 722.47,438.851L 725.667,438.851L 725.667,454.878L 727.377,452.814L 733.202,446.64L 737.092,446.64L 729.817,454.48L 737.944,465.406L 734.187,465.406L 727.67,456.715 Z "/>
	</g>
	<image x="0" y="0" width="397" height="446" transform="matrix(0.18,0.00,0.00,0.18,719.54,419.63)" xlink:href="xavatars_files/image3.png"/>
	<g>
		<path fill="#FFE7E7" fill-opacity="1" stroke-linejoin="round" d="M 752.521,465.76C 749.984,465.76 747.92,464.924 746.331,463.251C 744.741,461.579 743.946,459.343 743.946,456.543L 743.946,455.951C 743.946,454.089 744.3,452.426 745.009,450.964C 745.717,449.501 746.708,448.356 747.982,447.528C 749.256,446.7 750.637,446.286 752.123,446.286C 754.554,446.286 756.443,447.114 757.791,448.77C 759.139,450.426 759.813,452.798 759.813,455.885L 759.813,457.262L 747.144,457.262C 747.188,458.955 747.727,460.323 748.759,461.365C 749.792,462.407 751.103,462.928 752.693,462.928C 753.822,462.928 754.778,462.716 755.562,462.291C 756.345,461.867 757.032,461.305 757.622,460.604L 759.575,462.131C 758.008,464.55 755.656,465.76 752.521,465.76 Z M 752.123,449.119C 750.832,449.119 749.749,449.585 748.873,450.516C 747.997,451.447 747.456,452.752 747.249,454.43L 756.615,454.43L 756.615,454.192C 756.523,452.58 756.085,451.332 755.302,450.447C 754.518,449.561 753.458,449.119 752.123,449.119 Z "/>
	</g>
	<image x="0" y="0" width="384" height="446" transform="matrix(0.18,0.00,0.00,0.18,742.74,419.63)" xlink:href="xavatars_files/image4.png"/>
	<g>
		<path fill="#FFFFC5" fill-opacity="1" stroke-linejoin="round" d="M 777.013,449.235C 776.53,449.158 776.006,449.119 775.442,449.119C 773.343,449.119 771.92,450.03 771.171,451.852L 771.171,465.406L 767.973,465.406L 767.973,446.64L 771.083,446.64L 771.132,448.803C 772.183,447.125 773.672,446.286 775.597,446.286C 776.216,446.286 776.689,446.36 777.013,446.508L 777.013,449.235 Z "/>
	</g>
	<image x="0" y="0" width="380" height="446" transform="matrix(0.18,0.00,0.00,0.18,763.63,419.63)" xlink:href="xavatars_files/image5.png"/>
	<g>
		<path fill="#FFFFFF" fill-opacity="1" stroke-linejoin="round" d="M 787.984,455.852C 787.984,454.011 788.344,452.356 789.065,450.886C 789.786,449.417 790.79,448.283 792.075,447.484C 793.36,446.686 794.827,446.286 796.476,446.286C 799.021,446.286 801.081,447.171 802.656,448.942C 804.23,450.712 805.018,453.067 805.018,456.007L 805.018,456.233C 805.018,458.059 804.668,459.699 803.969,461.152C 803.271,462.605 802.273,463.736 800.976,464.546C 799.68,465.355 798.191,465.76 796.509,465.76C 793.975,465.76 791.921,464.875 790.346,463.105C 788.771,461.334 787.984,458.99 787.984,456.073L 787.984,455.852 Z M 791.204,456.217C 791.204,458.242 791.685,459.866 792.648,461.091C 793.61,462.315 794.897,462.928 796.509,462.928C 798.136,462.928 799.427,462.306 800.382,461.063C 801.337,459.82 801.815,458.081 801.815,455.846C 801.815,453.847 801.328,452.226 800.354,450.983C 799.38,449.74 798.088,449.119 796.476,449.119C 794.897,449.119 793.624,449.731 792.656,450.956C 791.688,452.18 791.204,453.934 791.204,456.217 Z "/>
	</g>
	<image x="0" y="0" width="380" height="446" transform="matrix(0.18,0.00,0.00,0.18,792.84,419.63)" xlink:href="xavatars_files/image6.png"/>
	<g>
		<path fill="#FFFFFF" fill-opacity="1" stroke-linejoin="round" d="M 817.195,455.852C 817.195,454.011 817.555,452.356 818.276,450.886C 818.997,449.417 820,448.283 821.286,447.484C 822.571,446.686 824.038,446.286 825.687,446.286C 828.232,446.286 830.291,447.171 831.866,448.942C 833.441,450.712 834.229,453.067 834.229,456.007L 834.229,456.233C 834.229,458.059 833.879,459.699 833.18,461.152C 832.481,462.605 831.484,463.736 830.187,464.546C 828.891,465.355 827.402,465.76 825.72,465.76C 823.186,465.76 821.132,464.875 819.557,463.105C 817.982,461.334 817.195,458.99 817.195,456.073L 817.195,455.852 Z M 820.414,456.217C 820.414,458.242 820.896,459.866 821.858,461.091C 822.821,462.315 824.108,462.928 825.72,462.928C 827.346,462.928 828.637,462.306 829.593,461.063C 830.548,459.82 831.025,458.081 831.025,455.846C 831.025,453.847 830.539,452.226 829.565,450.983C 828.591,449.74 827.298,449.119 825.687,449.119C 824.108,449.119 822.835,449.731 821.867,450.956C 820.898,452.18 820.414,453.934 820.414,456.217 Z "/>
	</g>
	<path fill="#FFFFFF" fill-opacity="1" stroke-width="50800" stroke-linejoin="miter" d="M 799.292,453.336C 799.292,455.373 800.489,457.024 801.966,457.024C 803.442,457.024 804.64,455.373 804.64,453.336C 804.64,451.299 803.442,449.647 801.966,449.647C 800.489,449.647 799.292,451.299 799.292,453.336 Z "/>
	<path fill="#FFFFFF" fill-opacity="1" stroke-width="50800" stroke-linejoin="miter" d="M 828.06,453.336C 828.06,455.373 829.257,457.024 830.734,457.024C 832.211,457.024 833.408,455.373 833.408,453.336C 833.408,451.299 832.211,449.647 830.734,449.647C 829.257,449.647 828.06,451.299 828.06,453.336 Z "/>
</svg>
