<?xml version="1.0" encoding="utf-8"?>
<!DOCTYPE svg PUBLIC "-//W3C//DTD SVG 1.1//EN" "http://www.w3.org/Graphics/SVG/1.1/DTD/svg11.dtd">
<svg xmlns="http://www.w3.org/2000/svg" xmlns:xlink="http://www.w3.org/1999/xlink" version="1.1" baseProfile="full" width="321.723" height="309.592" viewBox="0 0 321.72 309.59" enable-background="new 0 0 321.72 309.59" xml:space="preserve">
	<ellipse fill="#FFFFFF" fill-opacity="1" stroke-linejoin="round" cx="154.887" cy="154.796" rx="154.136" ry="154.045"/>
	<ellipse fill="none" stroke-width="1.50185" stroke-linejoin="miter" stroke="#000000" stroke-opacity="1" cx="154.887" cy="154.796" rx="154.136" ry="154.045"/>
	<ellipse fill="#FFFFFF" fill-opacity="1" stroke-width="16933.3" stroke-linejoin="miter" cx="154.887" cy="154.887" rx="149.017" ry="149.017"/>
	<ellipse fill="none" stroke-width="4.50554" stroke-linejoin="miter" stroke="#000000" stroke-opacity="1" cx="154.887" cy="154.887" rx="149.017" ry="149.017"/>
	<ellipse fill="#000000" fill-opacity="1" stroke-width="50800" stroke-linejoin="miter" cx="154.796" cy="154.796" rx="144.354" ry="144.354"/>
	<ellipse fill="none" stroke-width="1.50185" stroke-linejoin="miter" stroke="#000000" stroke-opacity="1" cx="154.796" cy="154.796" rx="144.354" ry="144.354"/>
	<image x="0" y="0" width="545" height="446" transform="matrix(0.18,0.00,0.00,0.18,167.02,121.46)" xlink:href="error_files/image0.png"/>
	<g>
		<path fill="#FFFFFF" fill-opacity="1" stroke-linejoin="round" d="M 191.137,157.389C 191.137,155.564 191.494,153.923 192.209,152.466C 192.924,151.009 193.919,149.884 195.193,149.092C 196.467,148.301 197.922,147.905 199.556,147.905C 202.08,147.905 204.122,148.783 205.684,150.538C 207.245,152.293 208.026,154.628 208.026,157.543L 208.026,157.767C 208.026,159.578 207.679,161.203 206.986,162.644C 206.293,164.085 205.304,165.206 204.019,166.009C 202.733,166.812 201.257,167.213 199.589,167.213C 197.077,167.213 195.04,166.335 193.479,164.58C 191.917,162.825 191.137,160.501 191.137,157.608L 191.137,157.389 Z M 194.329,157.751C 194.329,159.759 194.806,161.369 195.761,162.583C 196.715,163.798 197.991,164.405 199.589,164.405C 201.202,164.405 202.482,163.788 203.429,162.556C 204.376,161.324 204.85,159.599 204.85,157.383C 204.85,155.401 204.367,153.794 203.402,152.562C 202.436,151.329 201.154,150.713 199.556,150.713C 197.991,150.713 196.729,151.32 195.769,152.534C 194.809,153.749 194.329,155.487 194.329,157.751 Z "/>
		<path fill="#FFFFFF" fill-opacity="1" stroke-linejoin="round" d="M 219.923,157.389C 219.923,155.564 220.281,153.923 220.996,152.466C 221.711,151.009 222.705,149.884 223.98,149.092C 225.254,148.301 226.709,147.905 228.343,147.905C 230.866,147.905 232.909,148.783 234.47,150.538C 236.032,152.293 236.812,154.628 236.812,157.543L 236.812,157.767C 236.812,159.578 236.466,161.203 235.773,162.644C 235.08,164.085 234.091,165.206 232.805,166.009C 231.52,166.812 230.044,167.213 228.376,167.213C 225.864,167.213 223.827,166.335 222.266,164.58C 220.704,162.825 219.923,160.501 219.923,157.608L 219.923,157.389 Z M 223.116,157.751C 223.116,159.759 223.593,161.369 224.547,162.583C 225.502,163.798 226.778,164.405 228.376,164.405C 229.989,164.405 231.269,163.788 232.216,162.556C 233.163,161.324 233.636,159.599 233.636,157.383C 233.636,155.401 233.154,153.794 232.188,152.562C 231.223,151.329 229.941,150.713 228.343,150.713C 226.778,150.713 225.516,151.32 224.556,152.534C 223.596,153.749 223.116,155.487 223.116,157.751 Z "/>
	</g>
	<ellipse fill="#FFFFFF" fill-opacity="1" stroke-width="16933.3" stroke-linejoin="miter" cx="201.238" cy="154.887" rx="2.65125" ry="3.65686"/>
	<ellipse fill="#FFFFFF" fill-opacity="1" stroke-width="16933.3" stroke-linejoin="miter" cx="229.761" cy="154.887" rx="2.65125" ry="3.65686"/>
	<path fill="#FFF2CC" fill-opacity="1" stroke-width="16933.3" stroke-linejoin="miter" d="M 318.988,75.2404C 317.423,78.2068 315.615,80.6137 313.563,82.4613C 311.511,84.3089 309.3,85.6417 306.93,86.4595C 304.559,87.2773 302.072,87.5811 299.468,87.3709C 296.865,87.1608 294.221,86.4554 291.536,85.2547L 284.754,97.2536C 284.487,97.7592 283.992,97.9828 283.269,97.9244C 282.546,97.8661 281.527,97.4901 280.212,96.7966C 279.504,96.4232 278.911,96.0779 278.432,95.7605C 277.953,95.4432 277.593,95.1456 277.352,94.8675C 277.111,94.5896 276.976,94.3138 276.948,94.0405C 276.92,93.7671 276.977,93.4956 277.119,93.2259L 284.204,79.06C 284.579,78.2669 284.972,77.666 285.381,77.2572C 285.791,76.8485 286.232,76.5641 286.704,76.4038C 287.176,76.2436 287.68,76.229 288.214,76.36C 288.748,76.491 289.318,76.7165 289.925,77.0366L 291.038,77.6234C 293.229,78.7793 295.282,79.4206 297.197,79.5476C 299.112,79.6745 300.852,79.4184 302.417,78.7791C 303.983,78.1398 305.393,77.1605 306.65,75.841C 307.906,74.5216 308.978,73.0193 309.868,71.3338C 310.881,69.4124 311.541,67.5089 311.846,65.6233C 312.151,63.7375 312.071,61.9287 311.606,60.1967C 311.141,58.4648 310.26,56.8473 308.963,55.3444C 307.666,53.8416 305.905,52.5033 303.68,51.3297C 301.725,50.2983 299.903,49.6065 298.215,49.2543C 296.526,48.9022 295.009,48.6944 293.664,48.631C 292.318,48.5675 291.193,48.5558 290.289,48.5958C 289.385,48.6358 288.764,48.5668 288.427,48.389C 288.191,48.2645 288.007,48.1028 287.875,47.9039C 287.743,47.705 287.685,47.4267 287.701,47.069C 287.717,46.7114 287.821,46.2704 288.011,45.746C 288.202,45.2217 288.493,44.5887 288.884,43.8472C 289.311,43.0381 289.686,42.4496 290.009,42.0817C 290.332,41.7136 290.747,41.4584 291.253,41.316C 291.759,41.1736 292.63,41.0945 293.867,41.0789C 295.103,41.0632 296.519,41.1963 298.116,41.4783C 299.712,41.7603 301.408,42.1808 303.203,42.7399C 304.997,43.299 306.771,44.0408 308.524,44.9655C 312.131,46.8682 314.961,49.0182 317.014,51.4156C 319.067,53.8129 320.474,56.3326 321.235,58.9745C 321.996,61.6164 322.158,64.3307 321.723,67.117C 321.287,69.9034 320.375,72.6112 318.988,75.2404 Z M 279.351,111.661C 278.764,112.773 278.204,113.652 277.67,114.296C 277.136,114.941 276.547,115.384 275.902,115.626C 275.258,115.868 274.541,115.899 273.752,115.72C 272.963,115.541 272.063,115.184 271.052,114.651C 269.973,114.082 269.146,113.527 268.569,112.986C 267.993,112.445 267.614,111.835 267.433,111.158C 267.252,110.481 267.276,109.74 267.507,108.935C 267.738,108.13 268.146,107.172 268.733,106.059C 269.32,104.947 269.889,104.051 270.441,103.373C 270.993,102.695 271.59,102.256 272.234,102.057C 272.878,101.858 273.586,101.843 274.358,102.014C 275.129,102.184 276.055,102.553 277.133,103.123C 278.145,103.656 278.947,104.198 279.54,104.748C 280.133,105.298 280.521,105.89 280.703,106.525C 280.886,107.159 280.852,107.896 280.604,108.734C 280.356,109.573 279.938,110.548 279.351,111.661 Z "/>
</svg>
