<?xml version="1.0" encoding="utf-8"?>
<!DOCTYPE svg PUBLIC "-//W3C//DTD SVG 1.1//EN" "http://www.w3.org/Graphics/SVG/1.1/DTD/svg11.dtd">
<svg xmlns="http://www.w3.org/2000/svg" xmlns:xlink="http://www.w3.org/1999/xlink" version="1.1" baseProfile="full" width="189.326" height="71.7413" viewBox="0 0 189.33 71.74" enable-background="new 0 0 189.33 71.74" xml:space="preserve">
	<image x="0" y="0" width="392" height="446" transform="matrix(0.16,0.00,0.00,0.16,0.00,0.00)" xlink:href="logo_letter_new_files/image0.png"/>
	<g>
		<path fill="#FBE5D6" fill-opacity="1" stroke-linejoin="round" d="M 27.6667,33.7888L 25.847,35.6938L 25.847,41.6857L 22.9416,41.6857L 22.9416,17.5574L 25.847,17.5574L 25.847,32.1199L 27.4003,30.2449L 32.6934,24.6351L 36.2272,24.6351L 29.617,31.7579L 37.0013,41.6857L 33.5881,41.6857L 27.6667,33.7888 Z "/>
	</g>
	<image x="0" y="0" width="397" height="446" transform="matrix(0.16,0.00,0.00,0.16,20.27,0.00)" xlink:href="logo_letter_new_files/image1.png"/>
	<g>
		<path fill="#DEEBF7" fill-opacity="1" stroke-linejoin="round" d="M 50.2467,42.0074C 47.9411,42.0074 46.0662,41.2476 44.6218,39.7278C 43.1775,38.2081 42.4553,36.1765 42.4553,33.6329L 42.4553,33.095C 42.4553,31.4027 42.777,29.8922 43.4204,28.5635C 44.0638,27.2347 44.9645,26.1942 46.1223,25.4419C 47.2801,24.6895 48.5343,24.3134 49.8848,24.3134C 52.0932,24.3134 53.8098,25.0657 55.0347,26.5704C 56.2595,28.075 56.8719,30.2298 56.8719,33.0347L 56.8719,34.2864L 45.3607,34.2864C 45.4009,35.8246 45.8902,37.067 46.8285,38.0137C 47.7669,38.9604 48.9582,39.4337 50.4025,39.4337C 51.428,39.4337 52.2968,39.241 53.0089,38.8557C 53.721,38.4703 54.3452,37.9592 54.8813,37.3225L 56.6558,38.7099C 55.2315,40.9083 53.0952,42.0074 50.2467,42.0074 Z M 49.8848,26.887C 48.7119,26.887 47.7275,27.3101 46.9316,28.1563C 46.1357,29.0024 45.6439,30.1879 45.4562,31.7127L 53.9665,31.7127L 53.9665,31.4965C 53.8827,30.0321 53.4848,28.8978 52.7726,28.0934C 52.0605,27.2892 51.0979,26.887 49.8848,26.887 Z "/>
	</g>
	<image x="0" y="0" width="392" height="446" transform="matrix(0.16,0.00,0.00,0.16,41.34,0.00)" xlink:href="logo_letter_new_files/image2.png"/>
	<g>
		<path fill="#E2F0D9" fill-opacity="1" stroke-linejoin="round" d="M 69.0064,33.7888L 67.1868,35.6938L 67.1868,41.6857L 64.2813,41.6857L 64.2813,17.5574L 67.1868,17.5574L 67.1868,32.1199L 68.74,30.2449L 74.0331,24.6351L 77.5669,24.6351L 70.9568,31.7579L 78.341,41.6857L 74.9279,41.6857L 69.0064,33.7888 Z "/>
	</g>
	<image x="0" y="0" width="397" height="446" transform="matrix(0.16,0.00,0.00,0.16,61.61,0.00)" xlink:href="logo_letter_new_files/image3.png"/>
	<g>
		<path fill="#FFE7E7" fill-opacity="1" stroke-linejoin="round" d="M 91.5865,42.0074C 89.2809,42.0074 87.4059,41.2476 85.9616,39.7278C 84.5172,38.2081 83.7951,36.1765 83.7951,33.6329L 83.7951,33.095C 83.7951,31.4027 84.1168,29.8922 84.7602,28.5635C 85.4036,27.2347 86.3042,26.1942 87.462,25.4419C 88.6199,24.6895 89.874,24.3134 91.2245,24.3134C 93.4329,24.3134 95.1496,25.0657 96.3744,26.5704C 97.5993,28.075 98.2117,30.2298 98.2117,33.0347L 98.2117,34.2864L 86.7005,34.2864C 86.7407,35.8246 87.23,37.067 88.1683,38.0137C 89.1066,38.9604 90.2979,39.4337 91.7423,39.4337C 92.7677,39.4337 93.6365,39.241 94.3486,38.8557C 95.0608,38.4703 95.6849,37.9592 96.2211,37.3225L 97.9955,38.7099C 96.5713,40.9083 94.4349,42.0074 91.5865,42.0074 Z M 91.2245,26.887C 90.0516,26.887 89.0672,27.3101 88.2713,28.1563C 87.4754,29.0024 86.9837,30.1879 86.796,31.7127L 95.3062,31.7127L 95.3062,31.4965C 95.2225,30.0321 94.8245,28.8978 94.1124,28.0934C 93.4003,27.2892 92.4377,26.887 91.2245,26.887 Z "/>
	</g>
	<image x="0" y="0" width="384" height="446" transform="matrix(0.16,0.00,0.00,0.16,82.68,0.00)" xlink:href="logo_letter_new_files/image4.png"/>
	<g>
		<path fill="#FFFFC5" fill-opacity="1" stroke-linejoin="round" d="M 113.84,26.9926C 113.401,26.9222 112.925,26.887 112.412,26.887C 110.505,26.887 109.212,27.7148 108.531,29.3702L 108.531,41.6857L 105.626,41.6857L 105.626,24.6351L 108.451,24.6351L 108.496,26.6005C 109.451,25.0757 110.804,24.3134 112.553,24.3134C 113.116,24.3134 113.545,24.3804 113.84,24.5145L 113.84,26.9926 Z "/>
	</g>
	<image x="0" y="0" width="380" height="446" transform="matrix(0.16,0.00,0.00,0.16,101.66,0.00)" xlink:href="logo_letter_new_files/image5.png"/>
	<g>
		<path fill="#FFFFFF" fill-opacity="1" stroke-linejoin="round" d="M 123.808,33.0046C 123.808,31.3323 124.135,29.8285 124.79,28.4931C 125.446,27.1577 126.357,26.1272 127.525,25.4017C 128.693,24.6761 130.026,24.3134 131.524,24.3134C 133.836,24.3134 135.708,25.1176 137.139,26.7262C 138.569,28.3348 139.285,30.4744 139.285,33.1453L 139.285,33.3514C 139.285,35.0103 138.967,36.4998 138.332,37.8202C 137.697,39.1405 136.791,40.1685 135.613,40.9041C 134.435,41.6396 133.082,42.0074 131.554,42.0074C 129.252,42.0074 127.385,41.2031 125.954,39.5946C 124.523,37.986 123.808,35.8564 123.808,33.2056L 123.808,33.0046 Z M 126.733,33.3363C 126.733,35.1761 127.171,36.6523 128.045,37.7649C 128.92,38.8774 130.089,39.4337 131.554,39.4337C 133.032,39.4337 134.205,38.8691 135.073,37.7397C 135.94,36.6104 136.374,35.0303 136.374,32.9996C 136.374,31.1832 135.932,29.7104 135.047,28.5811C 134.163,27.4517 132.988,26.887 131.524,26.887C 130.089,26.887 128.932,27.4434 128.053,28.5559C 127.173,29.6685 126.733,31.262 126.733,33.3363 Z "/>
	</g>
	<image x="0" y="0" width="380" height="446" transform="matrix(0.16,0.00,0.00,0.16,128.20,0.00)" xlink:href="logo_letter_new_files/image6.png"/>
	<g>
		<path fill="#FFFFFF" fill-opacity="1" stroke-linejoin="round" d="M 150.349,33.0046C 150.349,31.3323 150.676,29.8285 151.331,28.4931C 151.987,27.1577 152.898,26.1272 154.066,25.4017C 155.234,24.6761 156.567,24.3134 158.065,24.3134C 160.377,24.3134 162.249,25.1176 163.68,26.7262C 165.111,28.3348 165.826,30.4744 165.826,33.1453L 165.826,33.3514C 165.826,35.0103 165.508,36.4998 164.873,37.8202C 164.238,39.1405 163.332,40.1685 162.154,40.9041C 160.976,41.6396 159.623,42.0074 158.095,42.0074C 155.793,42.0074 153.926,41.2031 152.495,39.5946C 151.064,37.986 150.349,35.8564 150.349,33.2056L 150.349,33.0046 Z M 153.274,33.3363C 153.274,35.1761 153.712,36.6523 154.586,37.7649C 155.461,38.8774 156.63,39.4337 158.095,39.4337C 159.573,39.4337 160.746,38.8691 161.614,37.7397C 162.482,36.6104 162.916,35.0303 162.916,32.9996C 162.916,31.1832 162.473,29.7104 161.588,28.5811C 160.704,27.4517 159.529,26.887 158.065,26.887C 156.63,26.887 155.473,27.4434 154.594,28.5559C 153.714,29.6685 153.274,31.262 153.274,33.3363 Z "/>
	</g>
	<path fill="#FFFFFF" fill-opacity="1" stroke-linejoin="round" d="M 134.066,30.663C 134.066,32.5139 135.154,34.0142 136.496,34.0142C 137.837,34.0142 138.925,32.5139 138.925,30.663C 138.925,28.8123 137.837,27.3119 136.496,27.3119C 135.154,27.3119 134.066,28.8123 134.066,30.663 Z "/>
	<path fill="#FFFFFF" fill-opacity="1" stroke-linejoin="round" d="M 160.205,30.663C 160.205,32.5139 161.293,34.0142 162.634,34.0142C 163.976,34.0142 165.064,32.5139 165.064,30.663C 165.064,28.8123 163.976,27.3119 162.634,27.3119C 161.293,27.3119 160.205,28.8123 160.205,30.663 Z "/>
</svg>
