<?xml version="1.0" encoding="utf-8"?>
<!DOCTYPE svg PUBLIC "-//W3C//DTD SVG 1.1//EN" "http://www.w3.org/Graphics/SVG/1.1/DTD/svg11.dtd">
<svg xmlns="http://www.w3.org/2000/svg" xmlns:xlink="http://www.w3.org/1999/xlink" version="1.1" baseProfile="full" width="469.297" height="469.02" viewBox="0 0 469.30 469.02" enable-background="new 0 0 469.30 469.02" xml:space="preserve">
	<ellipse fill="#FFFFFF" fill-opacity="1" stroke-linejoin="round" cx="234.649" cy="234.51" rx="233.449" ry="233.311"/>
	<ellipse fill="none" stroke-width="2.39811" stroke-linejoin="miter" stroke="#000000" stroke-opacity="1" cx="234.649" cy="234.51" rx="233.449" ry="233.311"/>
	<ellipse fill="#FFFFFF" fill-opacity="1" stroke-width="16933.3" stroke-linejoin="miter" cx="234.649" cy="234.649" rx="225.696" ry="225.696"/>
	<ellipse fill="none" stroke-width="7.1701" stroke-linejoin="miter" stroke="#000000" stroke-opacity="1" cx="234.649" cy="234.649" rx="225.696" ry="225.696"/>
	<ellipse fill="#000000" fill-opacity="1" stroke-width="50800" stroke-linejoin="miter" cx="234.51" cy="234.51" rx="218.634" ry="218.634"/>
	<ellipse fill="none" stroke-width="2.39003" stroke-linejoin="miter" stroke="#000000" stroke-opacity="1" cx="234.51" cy="234.51" rx="218.634" ry="218.634"/>
	<image x="0" y="0" width="545" height="446" transform="matrix(0.27,0.00,0.00,0.27,253.03,184.03)" xlink:href="logo_alt_files/image0.png"/>
	<g>
		<path fill="#FFFFFF" fill-opacity="1" stroke-linejoin="round" d="M 289.55,238.437C 289.55,235.674 290.092,233.188 291.175,230.981C 292.257,228.774 293.764,227.071 295.694,225.872C 297.624,224.673 299.827,224.073 302.303,224.073C 306.125,224.073 309.218,225.402 311.583,228.061C 313.948,230.719 315.13,234.256 315.13,238.67L 315.13,239.011C 315.13,241.752 314.605,244.214 313.556,246.396C 312.506,248.578 311.008,250.277 309.061,251.493C 307.115,252.709 304.878,253.317 302.353,253.317C 298.548,253.317 295.463,251.987 293.098,249.329C 290.733,246.67 289.55,243.151 289.55,238.77L 289.55,238.437 Z M 294.386,238.986C 294.386,242.026 295.108,244.466 296.554,246.305C 297.999,248.144 299.932,249.063 302.353,249.063C 304.795,249.063 306.734,248.13 308.168,246.263C 309.603,244.397 310.32,241.785 310.32,238.429C 310.32,235.427 309.589,232.993 308.127,231.126C 306.665,229.26 304.723,228.327 302.303,228.327C 299.932,228.327 298.02,229.246 296.566,231.085C 295.113,232.924 294.386,235.557 294.386,238.986 Z "/>
		<path fill="#FFFFFF" fill-opacity="1" stroke-linejoin="round" d="M 333.15,238.437C 333.15,235.674 333.691,233.188 334.774,230.981C 335.857,228.774 337.363,227.071 339.293,225.872C 341.224,224.673 343.427,224.073 345.902,224.073C 349.724,224.073 352.817,225.402 355.182,228.061C 357.547,230.719 358.73,234.256 358.73,238.67L 358.73,239.011C 358.73,241.752 358.205,244.214 357.155,246.396C 356.106,248.578 354.608,250.277 352.661,251.493C 350.714,252.709 348.478,253.317 345.952,253.317C 342.147,253.317 339.062,251.987 336.697,249.329C 334.332,246.67 333.15,243.151 333.15,238.77L 333.15,238.437 Z M 337.985,238.986C 337.985,242.026 338.708,244.466 340.153,246.305C 341.599,248.144 343.532,249.063 345.952,249.063C 348.395,249.063 350.333,248.13 351.768,246.263C 353.202,244.397 353.919,241.785 353.919,238.429C 353.919,235.427 353.188,232.993 351.726,231.126C 350.264,229.26 348.323,228.327 345.902,228.327C 343.532,228.327 341.62,229.246 340.166,231.085C 338.712,232.924 337.985,235.557 337.985,238.986 Z "/>
	</g>
	<ellipse fill="#FFFFFF" fill-opacity="1" stroke-width="16933.3" stroke-linejoin="miter" cx="304.85" cy="234.648" rx="4.01547" ry="5.53854"/>
	<path fill="#FFFFFF" fill-opacity="1" stroke-width="16933.3" stroke-linejoin="miter" d="M 344.035,234.648C 344.035,237.707 345.833,240.187 348.05,240.187C 350.268,240.187 352.066,237.707 352.066,234.648C 352.066,231.59 350.268,229.11 348.05,229.11C 345.833,229.11 344.035,231.59 344.035,234.648 Z "/>
	<path fill="#FFF2CC" fill-opacity="1" stroke-width="16933.3" stroke-linejoin="miter" d="M 299.726,355.368C 299.966,356.39 299.921,357.345 299.59,358.232C 299.259,359.119 298.546,359.961 297.452,360.757C 296.358,361.554 294.755,362.335 292.642,363.101C 290.53,363.867 287.812,364.64 284.489,365.421C 281.039,366.232 278.173,366.804 275.891,367.138C 273.609,367.472 271.649,367.595 270.011,367.508C 268.372,367.421 266.976,367.075 265.822,366.469C 264.668,365.864 263.573,365.076 262.536,364.106L 167.259,285.755L 189.735,381.414C 189.975,382.436 189.922,383.359 189.576,384.182C 189.23,385.005 188.542,385.807 187.512,386.588C 186.482,387.37 184.974,388.129 182.99,388.865C 181.005,389.601 178.415,390.344 175.22,391.095C 172.153,391.815 169.567,392.288 167.462,392.513C 165.357,392.738 163.637,392.737 162.303,392.511C 160.969,392.285 159.996,391.874 159.383,391.276C 158.771,390.678 158.344,389.868 158.104,388.845L 97.9286,132.733C 97.6884,131.711 97.7019,130.764 97.969,129.892C 98.2361,129.02 98.9167,128.186 100.011,127.389C 101.105,126.593 102.644,125.827 104.629,125.091C 106.614,124.354 109.14,123.626 112.207,122.905C 115.402,122.155 118.052,121.667 120.157,121.442C 122.261,121.217 123.949,121.225 125.219,121.466C 126.49,121.707 127.47,122.151 128.162,122.798C 128.853,123.444 129.319,124.279 129.559,125.301L 166.223,281.346L 214.556,194.336C 215.278,192.817 216.116,191.508 217.072,190.407C 218.027,189.306 219.235,188.28 220.698,187.33C 222.16,186.379 223.955,185.553 226.083,184.851C 228.21,184.149 230.807,183.437 233.875,182.717C 237.07,181.966 239.776,181.431 241.994,181.112C 244.211,180.794 246.044,180.7 247.491,180.832C 248.938,180.964 250.031,181.314 250.772,181.882C 251.512,182.45 252.017,183.309 252.287,184.459C 252.648,185.992 252.593,187.624 252.122,189.352C 251.652,191.081 250.698,193.193 249.262,195.688L 201.451,272.866L 293.008,347.439C 295.18,349.221 296.775,350.701 297.793,351.878C 298.811,353.054 299.456,354.218 299.726,355.368 Z "/>
</svg>
