<?xml version="1.0" encoding="utf-8"?>
<!DOCTYPE svg PUBLIC "-//W3C//DTD SVG 1.1//EN" "http://www.w3.org/Graphics/SVG/1.1/DTD/svg11.dtd">
<svg xmlns="http://www.w3.org/2000/svg" xmlns:xlink="http://www.w3.org/1999/xlink" version="1.1" baseProfile="full" width="266" height="266" viewBox="0 0 266.00 266.00" enable-background="new 0 0 266.00 266.00" xml:space="preserve">
	<ellipse fill="#FFFFFF" fill-opacity="1" stroke-linejoin="round" cx="133.066" cy="133.088" rx="129.663" ry="129.663"/>
	<ellipse fill="none" stroke-width="1.25961" stroke-linejoin="miter" stroke="#000000" stroke-opacity="1" cx="133.066" cy="133.088" rx="129.663" ry="129.663"/>
	<ellipse fill="#FFFFFF" fill-opacity="1" stroke-width="16933.3" stroke-linejoin="miter" cx="132.989" cy="133.011" rx="125.431" ry="125.431"/>
	<ellipse fill="none" stroke-width="3.77884" stroke-linejoin="miter" stroke="#000000" stroke-opacity="1" cx="132.989" cy="133.011" rx="125.431" ry="125.431"/>
	<ellipse fill="#000000" fill-opacity="1" stroke-width="50800" stroke-linejoin="miter" cx="133.066" cy="133.088" rx="121.507" ry="121.507"/>
	<ellipse fill="none" stroke-width="1.25961" stroke-linejoin="miter" stroke="#000000" stroke-opacity="1" cx="133.066" cy="133.088" rx="121.507" ry="121.507"/>
	<image x="0" y="0" width="392" height="446" transform="matrix(0.15,0.00,0.00,0.15,46.63,104.85)" xlink:href="logo_files/image0.png"/>
	<g>
		<path fill="#FBE5D6" fill-opacity="1" stroke-linejoin="round" d="M 72.1211,135.898L 70.4497,137.648L 70.4497,143.152L 67.781,143.152L 67.781,120.99L 70.4497,120.99L 70.4497,134.365L 71.8764,132.643L 76.7382,127.49L 79.984,127.49L 73.9125,134.033L 80.695,143.152L 77.56,143.152L 72.1211,135.898 Z "/>
	</g>
	<image x="0" y="0" width="397" height="446" transform="matrix(0.15,0.00,0.00,0.15,65.25,104.85)" xlink:href="logo_files/image1.png"/>
	<g>
		<path fill="#DEEBF7" fill-opacity="1" stroke-linejoin="round" d="M 92.8611,143.447C 90.7433,143.447 89.0212,142.749 87.6945,141.353C 86.3679,139.957 85.7046,138.091 85.7046,135.755L 85.7046,135.261C 85.7046,133.707 86.0001,132.319 86.591,131.099C 87.182,129.878 88.0093,128.923 89.0727,128.231C 90.1362,127.54 91.2882,127.195 92.5286,127.195C 94.5571,127.195 96.1338,127.886 97.2588,129.268C 98.3839,130.65 98.9464,132.629 98.9464,135.206L 98.9464,136.355L 88.3732,136.355C 88.4102,137.768 88.8596,138.909 89.7214,139.779C 90.5833,140.648 91.6775,141.083 93.0042,141.083C 93.9461,141.083 94.7441,140.906 95.3982,140.552C 96.0522,140.198 96.6255,139.729 97.118,139.144L 98.7479,140.418C 97.4397,142.438 95.4774,143.447 92.8611,143.447 Z M 92.5286,129.559C 91.4513,129.559 90.5471,129.948 89.8161,130.725C 89.085,131.502 88.6333,132.591 88.461,133.991L 96.2777,133.991L 96.2777,133.793C 96.2008,132.448 95.8352,131.406 95.1811,130.667C 94.5271,129.928 93.6429,129.559 92.5286,129.559 Z "/>
	</g>
	<image x="0" y="0" width="392" height="446" transform="matrix(0.15,0.00,0.00,0.15,84.60,104.85)" xlink:href="logo_files/image2.png"/>
	<g>
		<path fill="#E2F0D9" fill-opacity="1" stroke-linejoin="round" d="M 110.092,135.898L 108.421,137.648L 108.421,143.152L 105.752,143.152L 105.752,120.99L 108.421,120.99L 108.421,134.365L 109.847,132.643L 114.709,127.49L 117.955,127.49L 111.884,134.033L 118.666,143.152L 115.531,143.152L 110.092,135.898 Z "/>
	</g>
	<image x="0" y="0" width="397" height="446" transform="matrix(0.15,0.00,0.00,0.15,103.22,104.85)" xlink:href="logo_files/image3.png"/>
	<g>
		<path fill="#FFE7E7" fill-opacity="1" stroke-linejoin="round" d="M 130.832,143.447C 128.714,143.447 126.992,142.749 125.666,141.353C 124.339,139.957 123.676,138.091 123.676,135.755L 123.676,135.261C 123.676,133.707 123.971,132.319 124.562,131.099C 125.153,129.878 125.98,128.923 127.044,128.231C 128.107,127.54 129.259,127.195 130.5,127.195C 132.528,127.195 134.105,127.886 135.23,129.268C 136.355,130.65 136.917,132.629 136.917,135.206L 136.917,136.355L 126.344,136.355C 126.381,137.768 126.831,138.909 127.692,139.779C 128.554,140.648 129.649,141.083 130.975,141.083C 131.917,141.083 132.715,140.906 133.369,140.552C 134.023,140.198 134.597,139.729 135.089,139.144L 136.719,140.418C 135.411,142.438 133.448,143.447 130.832,143.447 Z M 130.5,129.559C 129.422,129.559 128.518,129.948 127.787,130.725C 127.056,131.502 126.604,132.591 126.432,133.991L 134.249,133.991L 134.249,133.793C 134.172,132.448 133.806,131.406 133.152,130.667C 132.498,129.928 131.614,129.559 130.5,129.559 Z "/>
	</g>
	<image x="0" y="0" width="384" height="446" transform="matrix(0.15,0.00,0.00,0.15,122.57,104.85)" xlink:href="logo_files/image4.png"/>
	<g>
		<path fill="#FFFFC5" fill-opacity="1" stroke-linejoin="round" d="M 151.272,129.656C 150.869,129.591 150.432,129.559 149.961,129.559C 148.209,129.559 147.021,130.319 146.396,131.84L 146.396,143.152L 143.728,143.152L 143.728,127.49L 146.322,127.49L 146.364,129.296C 147.241,127.895 148.483,127.195 150.09,127.195C 150.607,127.195 151.001,127.257 151.272,127.38L 151.272,129.656 Z "/>
	</g>
	<image x="0" y="0" width="380" height="446" transform="matrix(0.15,0.00,0.00,0.15,140.01,104.85)" xlink:href="logo_files/image5.png"/>
	<g>
		<path fill="#FFFFFF" fill-opacity="1" stroke-linejoin="round" d="M 160.428,135.178C 160.428,133.642 160.729,132.261 161.33,131.034C 161.932,129.807 162.769,128.861 163.842,128.195C 164.915,127.528 166.139,127.195 167.515,127.195C 169.639,127.195 171.358,127.934 172.672,129.411C 173.987,130.889 174.644,132.854 174.644,135.307L 174.644,135.496C 174.644,137.02 174.352,138.388 173.769,139.601C 173.185,140.814 172.353,141.758 171.271,142.434C 170.189,143.109 168.946,143.447 167.543,143.447C 165.428,143.447 163.713,142.708 162.399,141.231C 161.085,139.753 160.428,137.797 160.428,135.363L 160.428,135.178 Z M 163.115,135.483C 163.115,137.173 163.516,138.528 164.32,139.55C 165.123,140.572 166.197,141.083 167.543,141.083C 168.9,141.083 169.977,140.565 170.775,139.527C 171.572,138.49 171.97,137.039 171.97,135.173C 171.97,133.505 171.564,132.152 170.751,131.115C 169.939,130.078 168.86,129.559 167.515,129.559C 166.197,129.559 165.135,130.07 164.327,131.092C 163.519,132.114 163.115,133.577 163.115,135.483 Z "/>
	</g>
	<image x="0" y="0" width="380" height="446" transform="matrix(0.15,0.00,0.00,0.15,164.38,104.85)" xlink:href="logo_files/image6.png"/>
	<g>
		<path fill="#FFFFFF" fill-opacity="1" stroke-linejoin="round" d="M 184.806,135.178C 184.806,133.642 185.107,132.261 185.709,131.034C 186.31,129.807 187.148,128.861 188.22,128.195C 189.293,127.528 190.517,127.195 191.893,127.195C 194.017,127.195 195.736,127.934 197.05,129.411C 198.365,130.889 199.022,132.854 199.022,135.307L 199.022,135.496C 199.022,137.02 198.73,138.388 198.147,139.601C 197.564,140.814 196.731,141.758 195.649,142.434C 194.567,143.109 193.324,143.447 191.921,143.447C 189.806,143.447 188.092,142.708 186.777,141.231C 185.463,139.753 184.806,137.797 184.806,135.363L 184.806,135.178 Z M 187.493,135.483C 187.493,137.173 187.895,138.528 188.698,139.55C 189.501,140.572 190.576,141.083 191.921,141.083C 193.278,141.083 194.356,140.565 195.153,139.527C 195.95,138.49 196.349,137.039 196.349,135.173C 196.349,133.505 195.942,132.152 195.13,131.115C 194.317,130.078 193.238,129.559 191.893,129.559C 190.576,129.559 189.513,130.07 188.705,131.092C 187.897,132.114 187.493,133.577 187.493,135.483 Z "/>
	</g>
	<path fill="#FFFFFF" fill-opacity="1" stroke-width="16933.3" stroke-linejoin="miter" d="M 169.772,133.011C 169.772,134.711 170.771,136.089 172.003,136.089C 173.236,136.089 174.235,134.711 174.235,133.011C 174.235,131.311 173.236,129.933 172.003,129.933C 170.771,129.933 169.772,131.311 169.772,133.011 Z "/>
	<ellipse fill="#FFFFFF" fill-opacity="1" stroke-width="16933.3" stroke-linejoin="miter" cx="196.089" cy="133.011" rx="2.15464" ry="3.07806"/>
</svg>
